<svg xmlns="http://www.w3.org/2000/svg" viewBox="-367.01 -1059.84 1726.78 1840.54">
  <g transform="matrix(1, 0, 0, 1, 10.38144, 273.540894)">
    <g transform="matrix(1, 0, 0, 1, -1085.592651, -20.946564)">
      <polygon points="1104.6,18.8 1004.3,18.8 788.1,250.7 788.1,20.4 708.2,20.4 708.2,520 788.1,520 788.1,278.7 1005.9,520 &#10;&#9;&#9;&#9;&#9;1107.7,520 877.4,261.6 &#9;&#9;&#9;"/>
      <path d="M1375.6,170.8c-28.2-15.7-61.1-25.1-95.6-25.1c-36,0-68.9,7.8-97.1,25.1c-28.2,17.3-51.7,39.2-67.4,67.4 c-15.7,29.8-23.5,62.7-23.5,98.7s7.8,70.5,23.5,98.7s37.6,51.7,67.4,67.4c28.2,15.7,61.1,25.1,97.1,25.1c36,0,68.9-7.8,97.1-25.1 c28.2-15.7,50.1-39.2,65.8-67.4c15.7-29.8,23.5-62.7,23.5-98.7s-9.4-68.9-25.1-98.7C1425.8,209.9,1403.8,186.4,1375.6,170.8z M1369.4,400.9c-9.4,18.8-21.9,32.9-37.6,42.3c-15.7,11-34.5,15.7-54.8,15.7c-20.3,0-39.2-4.7-56.4-15.7 c-15.7-11-28.2-25.1-37.6-42.3c-9.4-18.8-12.5-39.2-12.5-62.7s4.7-45.4,14.1-62.7c9.4-18.8,21.9-32.9,37.6-42.3 c15.7-11,34.5-15.7,56.4-15.7c20.4,0,39.2,4.7,54.8,15.7c15.7,11,28.2,25.1,37.6,42.3c9.4,18.8,12.5,39.2,12.5,62.7 S1378.8,382.1,1369.4,400.9z"/>
      <path d="M1627.9,62.7h-76.8v62.7c0,9.4-1.6,17.2-7.8,21.9c-4.7,4.7-12.5,7.8-21.9,7.8h-37.6v65.8h65.8v197.4 c0,20.4,4.7,39.2,12.5,54.8c7.8,15.7,20.4,28.2,36,36c15.7,9.4,32.9,12.5,54.8,12.5h59.5v-68.9h-43.9c-11,0-20.4-3.1-28.2-12.5 c-6.3-7.8-11-18.8-11-31.3v-188h84.6v-65.8h-84.6V62.7H1627.9z"/>
      <rect x="1773.6" width="78.3" height="520"/>
      <rect x="1941.2" y="1.6" width="79.9" height="81.5"/>
      <rect x="1941.2" y="155.1" width="78.3" height="366.4"/>
      <path d="M2419.1,214.6c-11-21.9-26.6-39.2-47-50.1c-20.4-12.5-43.9-18.8-70.5-18.8c-28.2,0-53.3,7.8-75.2,20.4 c-17.2,11-31.3,26.6-42.3,43.9v-56.4h-75.2V520h78.3V314.7c0-20.4,3.1-37.6,11-53.3c7.8-15.7,18.8-26.6,31.3-36 c14.1-7.8,29.8-12.5,48.6-12.5c17.2,0,29.8,3.1,42.3,11c12.5,7.9,20.4,17.2,26.6,29.8c6.3,12.5,9.4,28.2,9.4,45.4v219.3h78.3 V289.7C2436.4,261.6,2430.2,236.6,2419.1,214.6z"/>
    </g>
  </g>
  <g transform="matrix(19.186861, 0, 0, 19.186861, -70.891518, -1059.843872)" style="">
    <linearGradient id="XMLID_3_" gradientUnits="userSpaceOnUse" x1="15.9594" y1="-13.0143" x2="44.3068" y2="15.3332" gradientTransform="matrix(1 0 0 -1 0 61)">
      <stop offset="0.0968" style="stop-color:#0095D5"/>
      <stop offset="0.3007" style="stop-color:#238AD9"/>
      <stop offset="0.6211" style="stop-color:#557BDE"/>
      <stop offset="0.8643" style="stop-color:#7472E2"/>
      <stop offset="1" style="stop-color:#806EE3"/>
    </linearGradient>
    <polygon id="XMLID_2_" style="fill:url(#XMLID_3_);" points="0,60 30.1,29.9 60,60 &#9;"/>
    <linearGradient id="SVGID_1_" gradientUnits="userSpaceOnUse" x1="4.2092" y1="48.9409" x2="20.6734" y2="65.405" gradientTransform="matrix(1 0 0 -1 0 61)">
      <stop offset="0.1183" style="stop-color:#0095D5"/>
      <stop offset="0.4178" style="stop-color:#3C83DC"/>
      <stop offset="0.6962" style="stop-color:#6D74E1"/>
      <stop offset="0.8333" style="stop-color:#806EE3"/>
    </linearGradient>
    <polygon style="fill:url(#SVGID_1_);" points="0,0 30.1,0 0,32.5 &#9;"/>
    <linearGradient id="SVGID_2_" gradientUnits="userSpaceOnUse" x1="-10.1017" y1="5.8362" x2="45.7315" y2="61.6694" gradientTransform="matrix(1 0 0 -1 0 61)">
      <stop offset="0.1075" style="stop-color:#C757BC"/>
      <stop offset="0.2138" style="stop-color:#D0609A"/>
      <stop offset="0.4254" style="stop-color:#E1725C"/>
      <stop offset="0.6048" style="stop-color:#EE7E2F"/>
      <stop offset="0.743" style="stop-color:#F58613"/>
      <stop offset="0.8232" style="stop-color:#F88909"/>
    </linearGradient>
    <polygon style="fill:url(#SVGID_2_);" points="30.1,0 0,31.7 0,60 30.1,29.9 60,0 &#9;"/>
  </g>
</svg>