<svg xmlns="http://www.w3.org/2000/svg" viewBox="87.33 17.73 343.51 306.52">
  <g transform="matrix(1.375359, 0, 0, 1.375359, 146.768326, 17.727495)" style="">
    <path fill="#FFFFFF" d="M86.085,127c-0.209-1.424,0.197-2.841-0.232-4.177c-0.367-1.166-1.209-1.273-1.762-2.221 c-1.457-2.487-2.963-5.709-3.102-8.754c-0.127-2.735-1.133-5.206-1.27-7.917c-0.066-1.308,0.088-2.657,0.041-3.952 c-0.025-0.63-0.061-1.176-0.186-1.86c-0.031-0.169-0.143-0.865-0.195-1.144l0.34-0.848c-0.15-0.291,2.902-0.194,3.812-0.188 c1.545,0.019,2.998,0.099,4.539,0.173c3.148,0.156,6.016,0.117,9.082-0.356c6.832-1.055,9.973-3.845,11.58-5.005 c6.273-4.523,9.146-11.918,9.146-11.918c1.035-2.31,1.031-6.431,3.25-8.276c2.615-2.179,7.006-2.022,10.008-3.359 c1.756-0.777,3.023-1.205,4.818-0.833c1.332,0.278,3.73,1.821,4.281-0.345c-0.445-0.287-0.619-0.812-0.857-1.103 c2.475-0.245,0.047-5.986-0.932-7.133c-1.512-1.77-4.035-2.581-6.719-3.293c-3.188-0.845-6.08-1.82-9.082-1.231 c-5.242,1.026-4.85-1.974-7.939-1.974c-3.707,0-10.303,0.182-11.443,3.786c-0.531,1.683-1.078,1.753-1.998,3.044 c-0.787,1.106,0.137,2.082-0.258,3.344c-0.408,1.297-1.007,5.865-1.632,7.459c-1.057,2.697-2.317,6.065-4.643,6.065 c-3.261,0.39-5.824,0.515-8.469-0.445c-1.592-0.578-4.26-1.483-5.58-2.039c-6.088-2.563-7.088-5.367-7.088-5.367 c-0.653-1.08-2.374-2.821-3.018-5.093c-0.708-2.502-1.903-4.589-2.387-5.891c-0.501-1.349-1.699-3.51-2.64-5.846 c-1.205-2.991-2.9-5.223-4.141-6.331c-1.896-1.69-3.646-4.306-7.495-3.546c-0.688,0.136-3.188,0.249-5.104,1.856 c-1.299,1.09-1.709,3.339-2.912,5.236c-0.695,1.096-1.917,4.24-3.038,6.863c-0.777,1.818-1.139,3.181-1.979,3.85 c-0.657,0.524-1.471,1.201-2.456,0.832c-0.611-0.229-1.264-0.617-1.923-1.132c-0.89-0.695-2.913-4.138-4.156-6.681 c-1.077-2.205-3.376-5.502-4.706-7.287c-1.914-2.568-3.036-3.219-5.864-3.219c-6.067,0-6.526,3.397-9.195,8.337 c-1.172,2.17-1.599,5.614-3.952,8.313c-1.345,1.544-5.637,7.893-8.621,8.972v-0.031L0,66.366v45.257l0.008,0.063v-0.284 c0.193-0.59,0.398-1.156,0.631-1.662c1.154-2.459,3.832-4.741,5.32-7.266c0.809-1.376,1.732-2.724,2.268-4.168 c0.461-1.244,0.688-3.099,1.354-4.178c0.816-1.323,2.094-1.773,3.406-1.987c2.055-0.339,3.801,2.954,6.43,4.166 c1.121,0.515,6.281,2.342,7.83,2.717c2.551,0.61,5.381,1.119,7.971,1.642c1.387,0.28,2.713,0.443,4.141,0.588 c1.281,0.128,6.08,0.287,6.377,0.634c-2.439,1.244-3.869,4.736-4.785,7.207c-0.955,2.575-1.621,5.441-2.775,7.96 c-1.279,2.783-3.961,3.941-3.641,7.184c0.123,1.294,0.359,2.651,0.143,4.075c-0.23,1.499-0.836,2.669-1.277,4.137 c-0.566,1.915-1.24,8.1-2.113,9.918l5.337-0.669l0.009-0.003c0.583-1.386,1.12-7.237,1.309-7.794 c0.998-2.934,2.322-5.348,4.359-7.617c1.986-2.211,1.883-5.061,3.043-7.637c1.256-2.8,2.945-5.039,4.539-7.671 c2.881-4.759,4.781-10.767,10.906-11.989c0.654-0.135,4.404,2.569,6.068,4.177c1.906,1.832,3.988,3.954,5.24,6.48 c2.424,4.896,4.48,11.988,5.258,15.899c0.447,2.246,0.803,2.38,2.322,4.159c0.699,0.815,2.094,3.362,2.553,4.34 c0.482,1.044,1.215,3.42,1.799,4.633c0.344,0.722,1.236,2.94,1.885,4.856l4.987-0.156c0.018,0.042,0.109-0.012,0.13,0.027 c0.002,0,0.005-0.001,0.007-0.002c-0.021-0.038-0.04-0.082-0.058-0.123C88.496,138.292,86.906,132.522,86.085,127z"/>
    <path fill="#484444" d="M82.919,97.901l0.023-0.061C82.908,97.686,82.896,97.651,82.919,97.901z"/>
    <g>
      <g>
        <linearGradient id="SVGID_1_" gradientUnits="userSpaceOnUse" x1="-675.0754" y1="96.4384" x2="-675.0754" y2="96.6205" gradientTransform="matrix(1 0 0 1 758 1.28)">
          <stop offset="0" style="stop-color:#F29100"/>
          <stop offset="1" style="stop-color:#EC670F"/>
        </linearGradient>
        <path fill="url(#SVGID_1_)" d="M82.919,97.901l0.023-0.061C82.908,97.686,82.896,97.651,82.919,97.901z"/>
        <g>
          <linearGradient id="SVGID_2_" gradientUnits="userSpaceOnUse" x1="-696.7245" y1="97.701" x2="-696.7245" y2="142.9972" gradientTransform="matrix(1 0 0 1 758 1.28)">
            <stop offset="0" style="stop-color:#F29100"/>
            <stop offset="1" style="stop-color:#EC670F"/>
          </linearGradient>
          <path fill="url(#SVGID_2_)" d="M84.031,138.674c-0.584-1.213-1.316-3.589-1.799-4.633c-0.459-0.978-1.854-3.524-2.553-4.34 c-1.52-1.779-1.875-1.913-2.322-4.159c-0.777-3.911-2.834-11.004-5.258-15.899c-1.252-2.526-3.334-4.648-5.24-6.48 c-1.664-1.607-5.414-4.312-6.068-4.177c-6.125,1.223-8.025,7.23-10.906,11.989c-1.594,2.632-3.283,4.871-4.539,7.671 c-1.16,2.575-1.057,5.426-3.043,7.637c-2.037,2.27-3.361,4.684-4.359,7.617c-0.189,0.557-0.726,6.408-1.309,7.794 c0,0.001-0.001,0.002-0.001,0.003l9.104-0.641c8.482,0.578,6.033,3.829,19.273,3.121l20.906-0.647l0,0 C85.267,141.614,84.375,139.396,84.031,138.674z"/>
        </g>
        <g>
          <g>
            <linearGradient id="SVGID_3_" gradientUnits="userSpaceOnUse" x1="-675.2191" y1="-1.2802" x2="-675.2191" y2="142.9646" gradientTransform="matrix(1 0 0 1 758 1.28)">
              <stop offset="0" style="stop-color:#F29100"/>
              <stop offset="1" style="stop-color:#EC670F"/>
            </linearGradient>
            <path fill="url(#SVGID_3_)" d="M144.695,0H20.865C9.347,0,0.01,9.339,0.01,20.857v45.476v0.031 c2.984-1.079,7.276-7.428,8.621-8.972c2.353-2.7,2.78-6.144,3.952-8.313c2.669-4.94,3.128-8.337,9.195-8.337 c2.828,0,3.951,0.652,5.864,3.219c1.331,1.785,3.63,5.083,4.706,7.287c1.242,2.544,3.266,5.986,4.156,6.681 c0.659,0.516,1.312,0.903,1.923,1.132c0.984,0.369,1.798-0.308,2.456-0.832c0.84-0.669,1.202-2.032,1.979-3.85 c1.122-2.623,2.343-5.766,3.038-6.863c1.203-1.896,1.613-4.146,2.912-5.236c1.916-1.607,4.416-1.72,5.104-1.856 c3.849-0.76,5.599,1.856,7.495,3.546c1.241,1.108,2.937,3.34,4.141,6.331c0.941,2.336,2.139,4.497,2.64,5.846 c0.484,1.302,1.679,3.389,2.387,5.891c0.643,2.272,2.364,4.013,3.018,5.093c0,0,1.001,2.804,7.088,5.367 c1.32,0.556,3.988,1.46,5.58,2.039c2.645,0.961,5.207,0.836,8.469,0.445c2.326,0,3.586-3.368,4.643-6.065 c0.625-1.594,1.224-6.162,1.632-7.459c0.395-1.262-0.529-2.238,0.258-3.344c0.92-1.291,1.467-1.361,1.998-3.044 c1.141-3.604,7.736-3.786,11.443-3.786c3.09,0,2.697,3,7.939,1.974c3.002-0.589,5.895,0.387,9.082,1.231 c2.684,0.712,5.207,1.523,6.719,3.293c0.979,1.146,3.406,6.888,0.932,7.133c0.238,0.291,0.412,0.816,0.857,1.103 c-0.551,2.166-2.949,0.623-4.281,0.345c-1.795-0.372-3.062,0.056-4.818,0.833c-3.002,1.337-7.393,1.181-10.008,3.359 c-2.219,1.846-2.215,5.967-3.25,8.276c0,0-2.873,7.394-9.146,11.918c-1.607,1.16-4.748,3.95-11.58,5.005 c-3.066,0.474-5.934,0.513-9.082,0.356c-1.541-0.074-2.994-0.153-4.539-0.173c-0.91-0.007-3.963-0.104-3.812,0.188 l-0.34,0.848c0.053,0.279,0.164,0.976,0.195,1.144c0.125,0.685,0.16,1.231,0.186,1.86c0.047,1.295-0.107,2.645-0.041,3.952 c0.137,2.711,1.143,5.182,1.27,7.917c0.139,3.045,1.645,6.267,3.102,8.754c0.553,0.947,1.395,1.055,1.762,2.221 c0.43,1.336,0.023,2.753,0.232,4.177c0.82,5.521,2.41,11.292,4.896,16.275c0.017,0.041,0.037,0.086,0.058,0.123 c0,0,0,0.001,0.001,0.002c3.07-0.516,6.146-1.62,10.135-2.21c7.314-1.085,17.486-0.526,24.02-1.138 c16.533-1.554,25.506,6.781,40.355,3.365V20.858C165.55,9.339,156.216,0,144.695,0z M82.919,97.901 c-0.023-0.25-0.012-0.215,0.023-0.061L82.919,97.901z"/>
          </g>
        </g>
        <g>
          <linearGradient id="SVGID_4_" gradientUnits="userSpaceOnUse" x1="-735.129" y1="90.8344" x2="-735.129" y2="141.9687" gradientTransform="matrix(1 0 0 1 758 1.28)">
            <stop offset="0" style="stop-color:#F29100"/>
            <stop offset="1" style="stop-color:#EC670F"/>
          </linearGradient>
          <path fill="url(#SVGID_4_)" d="M38.175,117.053c1.154-2.518,1.82-5.385,2.775-7.96c0.916-2.471,2.346-5.963,4.785-7.207 c-0.297-0.347-5.096-0.506-6.377-0.634c-1.428-0.145-2.754-0.308-4.141-0.588c-2.59-0.523-5.42-1.031-7.971-1.642 c-1.549-0.375-6.709-2.202-7.83-2.717c-2.629-1.212-4.375-4.505-6.43-4.166c-1.312,0.214-2.59,0.664-3.406,1.987 c-0.666,1.079-0.893,2.933-1.354,4.178c-0.535,1.444-1.459,2.792-2.268,4.168c-1.488,2.524-4.166,4.807-5.32,7.266 c-0.232,0.506-0.438,1.072-0.631,1.662v0.284v9.15v16.321v2.358c1.346,0.23,2.754,0.513,4.33,0.934 c11.631,3.104,14.469,3.366,25.877,2.062l1.07-0.142v-0.001c0.873-1.818,1.547-8.003,2.113-9.918 c0.441-1.468,1.047-2.638,1.277-4.137c0.217-1.424-0.02-2.781-0.143-4.075C34.214,120.994,36.896,119.836,38.175,117.053z"/>
        </g>
      </g>
    </g>
  </g>
  <path fill="#484444" d="M 124.369 324.25 C 118.863 324.25 113.836 323.269 109.289 321.309 C 104.74 319.35 100.842 316.535 97.588 312.862 C 94.334 309.192 91.811 304.728 90.018 299.472 C 88.223 294.216 87.327 288.252 87.327 281.576 C 87.327 274.902 88.223 268.958 90.018 263.744 C 91.811 258.531 94.334 254.151 97.588 250.604 C 100.842 247.059 104.74 244.347 109.289 242.47 C 113.836 240.593 118.863 239.654 124.369 239.654 C 129.875 239.654 134.9 240.593 139.449 242.47 C 143.994 244.347 147.894 247.081 151.148 250.667 C 154.402 254.255 156.925 258.657 158.72 263.87 C 160.513 269.085 161.409 274.988 161.409 281.577 C 161.409 288.253 160.513 294.217 158.72 299.473 C 156.925 304.729 154.402 309.193 151.148 312.863 C 147.894 316.536 143.994 319.351 139.449 321.31 C 134.901 323.268 129.875 324.25 124.369 324.25 Z M 124.369 308.356 C 129.957 308.356 134.381 305.959 137.635 301.161 C 140.887 296.364 142.514 289.836 142.514 281.576 C 142.514 273.401 140.887 267.018 137.635 262.43 C 134.381 257.843 129.957 255.547 124.369 255.547 C 118.779 255.547 114.357 257.842 111.103 262.43 C 107.849 267.019 106.222 273.402 106.222 281.576 C 106.222 289.836 107.849 296.364 111.103 301.161 C 114.358 305.959 118.78 308.356 124.369 308.356 Z"/>
  <path fill="#484444" d="M 167.916 282.452 C 167.916 275.694 168.959 269.668 171.045 264.369 C 173.131 259.072 175.945 254.588 179.492 250.916 C 183.037 247.246 187.168 244.452 191.881 242.531 C 196.594 240.613 201.58 239.652 206.836 239.652 C 211.924 239.652 216.533 240.716 220.664 242.843 C 224.793 244.971 228.234 247.454 230.988 250.289 L 220.851 261.677 C 218.765 259.759 216.658 258.257 214.531 257.172 C 212.404 256.089 209.922 255.545 207.086 255.545 C 204.248 255.545 201.6 256.151 199.139 257.359 C 196.678 258.569 194.53 260.3 192.696 262.552 C 190.86 264.804 189.421 267.557 188.378 270.811 C 187.335 274.064 186.814 277.737 186.814 281.823 C 186.814 290.251 188.609 296.778 192.197 301.408 C 195.781 306.039 200.58 308.353 206.588 308.353 C 209.924 308.353 212.844 307.686 215.348 306.351 C 217.85 305.017 220.102 303.265 222.106 301.095 L 232.243 312.233 C 228.821 316.237 224.921 319.241 220.542 321.243 C 216.161 323.246 211.425 324.247 206.337 324.247 C 201.081 324.247 196.118 323.35 191.446 321.557 C 186.772 319.764 182.686 317.114 179.182 313.61 C 175.678 310.106 172.924 305.748 170.922 300.533 C 168.918 295.322 167.916 289.294 167.916 282.452 Z"/>
  <path fill="#484444" d="M 238.371 305.478 C 238.371 298.97 241.123 293.882 246.629 290.211 C 252.137 286.541 261.022 284.079 273.285 282.828 C 273.117 280.074 272.283 277.885 270.783 276.258 C 269.281 274.631 266.859 273.818 263.523 273.818 C 260.853 273.818 258.183 274.319 255.515 275.32 C 252.843 276.321 250.007 277.698 247.005 279.45 L 240.497 267.311 C 244.501 264.892 248.694 262.931 253.073 261.429 C 257.454 259.928 262.102 259.177 267.026 259.177 C 275.036 259.177 281.147 261.451 285.36 265.997 C 289.571 270.545 291.68 277.615 291.68 287.209 L 291.68 322.749 L 276.664 322.749 L 275.287 316.367 L 274.912 316.367 C 272.24 318.703 269.426 320.602 266.465 322.06 C 263.502 323.519 260.27 324.25 256.766 324.25 C 253.93 324.25 251.385 323.769 249.133 322.811 C 246.881 321.853 244.961 320.517 243.377 318.806 C 241.791 317.097 240.561 315.115 239.684 312.862 C 238.809 310.609 238.371 308.149 238.371 305.478 Z M 255.891 304.101 C 255.891 306.104 256.536 307.585 257.83 308.543 C 259.123 309.504 260.853 309.982 263.023 309.982 C 265.191 309.982 267.027 309.525 268.529 308.606 C 270.031 307.688 271.615 306.396 273.285 304.726 L 273.285 293.838 C 266.693 294.757 262.148 296.091 259.644 297.843 C 257.143 299.597 255.891 301.682 255.891 304.101 Z"/>
  <path fill="#484444" d="M 302.442 260.677 L 317.46 260.677 L 318.712 268.686 L 319.212 268.686 C 321.798 266.101 324.55 263.868 327.472 261.991 C 330.392 260.114 333.896 259.175 337.984 259.175 C 342.406 259.175 345.972 260.072 348.683 261.865 C 351.394 263.66 353.542 266.225 355.128 269.561 C 357.882 266.726 360.778 264.286 363.825 262.24 C 366.87 260.197 370.477 259.174 374.651 259.174 C 381.323 259.174 386.225 261.407 389.354 265.869 C 392.483 270.333 394.047 276.443 394.047 284.202 L 394.047 322.746 L 375.651 322.746 L 375.651 286.58 C 375.651 282.075 375.045 278.989 373.837 277.319 C 372.626 275.651 370.687 274.816 368.019 274.816 C 364.931 274.816 361.386 276.819 357.38 280.823 L 357.38 322.746 L 338.986 322.746 L 338.986 286.58 C 338.986 282.075 338.379 278.989 337.171 277.319 C 335.96 275.651 334.021 274.816 331.351 274.816 C 328.179 274.816 324.675 276.819 320.839 280.823 L 320.839 322.746 L 302.442 322.746 L 302.442 260.677 Z"/>
  <path fill="#484444" d="M 404.684 235.023 L 423.081 235.023 L 423.081 304.226 C 423.081 306.147 423.434 307.48 424.143 308.231 C 424.852 308.982 425.582 309.357 426.334 309.357 C 426.75 309.357 427.103 309.357 427.396 309.357 C 427.687 309.357 428.085 309.275 428.585 309.107 L 430.837 322.748 C 429.837 323.164 428.564 323.519 427.021 323.811 C 425.476 324.103 423.662 324.25 421.578 324.25 C 418.406 324.25 415.736 323.749 413.568 322.748 C 411.398 321.747 409.668 320.351 408.375 318.556 C 407.08 316.763 406.143 314.595 405.559 312.049 C 404.975 309.505 404.684 306.648 404.684 303.477 L 404.684 235.023 Z"/>
</svg>