<svg xmlns="http://www.w3.org/2000/svg" viewBox="18.58 134.36 137.09 106.47">
  <path class="cls-1" d="M 49.027 223.144 L 49.027 237.094 C 47.34 238.351 45.449 239.309 43.437 239.924 C 41.372 240.533 39.229 240.833 37.077 240.814 C 34.471 240.853 31.88 240.409 29.437 239.504 C 27.267 238.684 25.287 237.432 23.617 235.824 C 21.996 234.246 20.725 232.345 19.887 230.244 C 18.997 227.991 18.553 225.587 18.577 223.164 C 18.548 220.726 18.976 218.305 19.837 216.024 C 21.424 211.772 24.776 208.416 29.027 206.824 C 31.408 205.933 33.935 205.496 36.477 205.534 C 37.791 205.527 39.102 205.637 40.397 205.864 C 41.551 206.073 42.685 206.381 43.787 206.784 C 44.784 207.156 45.739 207.632 46.637 208.204 C 47.487 208.756 48.286 209.382 49.027 210.074 L 47.187 212.984 C 46.949 213.41 46.542 213.716 46.067 213.824 C 45.541 213.915 45.001 213.793 44.567 213.484 L 43.027 212.574 C 42.469 212.258 41.883 211.993 41.277 211.784 C 40.568 211.548 39.843 211.367 39.107 211.244 C 38.189 211.086 37.258 211.013 36.327 211.024 C 34.748 211.002 33.181 211.295 31.717 211.884 C 30.374 212.43 29.171 213.27 28.197 214.344 C 27.194 215.457 26.432 216.764 25.957 218.184 C 25.41 219.793 25.142 221.485 25.167 223.184 C 25.136 224.98 25.424 226.768 26.017 228.464 C 26.525 229.93 27.336 231.272 28.397 232.404 C 29.431 233.47 30.688 234.297 32.077 234.824 C 34.723 235.78 37.593 235.934 40.327 235.264 C 41.338 234.992 42.322 234.627 43.267 234.174 L 43.267 227.964 L 38.917 227.964 C 38.549 227.995 38.185 227.867 37.917 227.614 C 37.687 227.392 37.56 227.084 37.567 226.764 L 37.567 223.144 L 49.027 223.144 Z M 59.497 220.214 C 60.151 218.886 61.077 217.71 62.217 216.764 C 63.272 215.926 64.589 215.483 65.937 215.514 C 66.899 215.463 67.853 215.723 68.657 216.254 L 68.277 220.664 C 68.227 220.897 68.109 221.11 67.937 221.274 C 67.758 221.399 67.544 221.462 67.327 221.454 C 66.971 221.442 66.616 221.402 66.267 221.334 C 65.811 221.255 65.349 221.215 64.887 221.214 C 64.295 221.204 63.705 221.298 63.147 221.494 C 62.643 221.684 62.178 221.965 61.777 222.324 C 61.356 222.701 60.995 223.139 60.707 223.624 C 60.371 224.18 60.08 224.762 59.837 225.364 L 59.837 240.434 L 54.027 240.434 L 54.027 215.964 L 57.477 215.964 C 57.924 215.92 58.373 216.033 58.747 216.284 C 59.033 216.605 59.203 217.014 59.227 217.444 L 59.497 220.214 Z M 70.857 219.374 C 73.617 216.816 77.264 215.431 81.027 215.514 C 82.34 215.491 83.646 215.729 84.867 216.214 C 85.955 216.664 86.931 217.347 87.727 218.214 C 88.524 219.078 89.13 220.1 89.507 221.214 C 89.922 222.445 90.128 223.736 90.117 225.034 L 90.117 240.434 L 87.437 240.434 C 86.996 240.459 86.556 240.373 86.157 240.184 C 85.801 239.951 85.545 239.595 85.437 239.184 L 84.917 237.414 C 84.339 237.939 83.731 238.43 83.097 238.884 C 82.523 239.296 81.91 239.651 81.267 239.944 C 80.624 240.231 79.954 240.453 79.267 240.604 C 78.476 240.758 77.672 240.832 76.867 240.824 C 75.898 240.832 74.934 240.694 74.007 240.414 C 73.17 240.157 72.397 239.728 71.737 239.154 C 71.091 238.587 70.585 237.879 70.257 237.084 C 69.891 236.165 69.715 235.183 69.737 234.194 C 69.737 233.565 69.842 232.939 70.047 232.344 C 70.265 231.702 70.604 231.108 71.047 230.594 C 71.576 229.984 72.193 229.455 72.877 229.024 C 73.73 228.471 74.655 228.037 75.627 227.734 C 76.869 227.328 78.144 227.027 79.437 226.834 C 81.092 226.584 82.763 226.447 84.437 226.424 L 84.437 224.984 C 84.542 223.683 84.169 222.389 83.387 221.344 C 82.609 220.529 81.512 220.097 80.387 220.164 C 79.581 220.142 78.776 220.253 78.007 220.494 C 77.434 220.69 76.881 220.941 76.357 221.244 L 75.057 221.994 C 74.662 222.223 74.213 222.341 73.757 222.334 C 73.381 222.346 73.012 222.234 72.707 222.014 C 72.429 221.809 72.194 221.551 72.017 221.254 L 70.857 219.374 Z M 84.357 229.984 C 82.915 230.036 81.478 230.186 80.057 230.434 C 79.094 230.583 78.156 230.859 77.267 231.254 C 76.67 231.501 76.152 231.906 75.767 232.424 C 75.017 233.601 75.215 235.145 76.237 236.094 C 76.94 236.57 77.778 236.805 78.627 236.764 C 79.71 236.79 80.785 236.564 81.767 236.104 C 82.739 235.592 83.615 234.915 84.357 234.104 L 84.357 229.984 Z M 116.887 204.984 L 116.887 240.434 L 113.287 240.434 C 112.595 240.497 111.964 240.04 111.807 239.364 L 111.307 237.004 C 110.344 238.111 109.193 239.039 107.907 239.744 C 106.525 240.45 104.987 240.794 103.437 240.744 C 100.853 240.786 98.41 239.571 96.887 237.484 C 96.031 236.321 95.401 235.009 95.027 233.614 C 94.564 231.873 94.341 230.076 94.367 228.274 C 94.353 226.56 94.603 224.853 95.107 223.214 C 95.561 221.76 96.283 220.403 97.237 219.214 C 98.131 218.087 99.261 217.169 100.547 216.524 C 101.895 215.857 103.382 215.514 104.887 215.524 C 106.088 215.491 107.284 215.709 108.397 216.164 C 109.358 216.588 110.238 217.177 110.997 217.904 L 110.997 204.994 L 116.887 204.984 Z M 111.027 222.214 C 110.446 221.477 109.699 220.887 108.847 220.494 C 108.042 220.16 107.178 219.99 106.307 219.994 C 105.476 219.983 104.654 220.153 103.897 220.494 C 103.156 220.836 102.513 221.359 102.027 222.014 C 101.471 222.785 101.073 223.659 100.857 224.584 C 100.569 225.793 100.435 227.032 100.457 228.274 C 100.434 229.493 100.548 230.711 100.797 231.904 C 100.976 232.772 101.315 233.6 101.797 234.344 C 102.186 234.936 102.733 235.407 103.377 235.704 C 104.03 235.986 104.735 236.126 105.447 236.114 C 106.54 236.151 107.622 235.888 108.577 235.354 C 109.517 234.783 110.346 234.048 111.027 233.184 L 111.027 222.214 Z M 128.697 204.994 L 128.697 240.434 L 122.807 240.434 L 122.807 204.994 L 128.697 204.994 Z M 139.127 228.934 C 139.189 230.048 139.415 231.146 139.797 232.194 C 140.096 233.037 140.566 233.81 141.177 234.464 C 141.735 235.052 142.418 235.507 143.177 235.794 C 144.012 236.099 144.897 236.249 145.787 236.234 C 146.622 236.25 147.455 236.139 148.257 235.904 C 148.88 235.709 149.485 235.462 150.067 235.164 C 150.587 234.894 151.067 234.644 151.427 234.424 C 151.768 234.218 152.158 234.105 152.557 234.094 C 152.996 234.064 153.417 234.274 153.657 234.644 L 155.387 236.824 C 154.76 237.573 154.021 238.221 153.197 238.744 C 152.401 239.255 151.549 239.671 150.657 239.984 C 149.781 240.293 148.876 240.514 147.957 240.644 C 147.079 240.77 146.193 240.833 145.307 240.834 C 143.684 240.851 142.073 240.563 140.557 239.984 C 139.118 239.437 137.814 238.584 136.737 237.484 C 135.613 236.308 134.745 234.912 134.187 233.384 C 133.535 231.566 133.22 229.645 133.257 227.714 C 133.245 226.109 133.52 224.514 134.067 223.004 C 134.579 221.582 135.372 220.276 136.397 219.164 C 137.435 218.055 138.691 217.173 140.087 216.574 C 141.644 215.905 143.322 215.565 145.017 215.574 C 146.473 215.556 147.921 215.807 149.287 216.314 C 150.551 216.781 151.697 217.518 152.647 218.474 C 153.621 219.465 154.374 220.651 154.857 221.954 C 155.412 223.461 155.683 225.058 155.657 226.664 C 155.707 227.279 155.607 227.896 155.367 228.464 C 155.109 228.803 154.689 228.979 154.267 228.924 L 139.127 228.934 Z M 150.357 225.384 C 150.356 224.652 150.245 223.923 150.027 223.224 C 149.814 222.574 149.474 221.972 149.027 221.454 C 148.584 220.93 148.026 220.516 147.397 220.244 C 146.669 219.939 145.886 219.789 145.097 219.804 C 143.622 219.727 142.179 220.25 141.097 221.254 C 140.041 222.391 139.384 223.841 139.227 225.384 L 150.357 225.384 Z M 129.185 138.385 C 123.952 133.149 115.51 133.007 110.105 138.065 C 109.844 138.305 109.696 138.642 109.695 138.995 C 109.687 139.35 109.824 139.693 110.075 139.945 L 111.805 141.675 C 112.266 142.134 112.994 142.185 113.515 141.795 C 114.871 140.771 116.525 140.22 118.225 140.225 C 124.283 140.225 128.07 146.783 125.04 152.03 C 124.698 152.624 124.279 153.17 123.795 153.655 C 112.925 164.585 98.335 134.045 65.325 149.755 C 62.944 150.861 62.02 153.767 63.325 156.045 L 68.985 165.835 C 70.213 167.955 72.915 168.698 75.055 167.505 L 75.195 167.425 L 75.085 167.505 L 77.595 166.095 C 80.394 164.361 83.041 162.391 85.505 160.205 C 86.005 159.738 86.774 159.713 87.305 160.145 C 87.938 160.661 87.938 161.629 87.305 162.145 C 84.734 164.46 81.967 166.548 79.035 168.385 L 78.945 168.435 L 76.435 169.835 C 75.377 170.435 74.181 170.748 72.965 170.745 C 70.4 170.751 68.026 169.391 66.735 167.175 L 61.375 157.935 C 51.095 165.195 44.855 179.185 48.205 196.885 C 48.325 197.502 48.866 197.947 49.495 197.945 L 55.585 197.945 C 56.26 197.971 56.842 197.476 56.925 196.805 C 57.814 189.981 65.758 186.679 71.223 190.861 C 73.112 192.307 74.347 194.446 74.655 196.805 C 74.734 197.449 75.276 197.935 75.925 197.945 L 81.865 197.945 C 82.523 197.946 83.079 197.458 83.165 196.805 C 84.024 189.985 91.944 186.652 97.421 190.806 C 99.336 192.258 100.584 194.421 100.885 196.805 C 100.965 197.456 101.519 197.945 102.175 197.945 L 108.045 197.945 C 108.755 197.945 109.334 197.375 109.345 196.665 C 109.485 188.385 111.715 178.875 118.085 174.115 C 140.075 157.635 134.285 143.505 129.185 138.385 Z M 106.715 163.305 L 102.515 161.195 C 102.507 159.163 104.702 157.885 106.466 158.894 C 108.125 159.844 108.256 162.186 106.715 163.315 L 106.715 163.305 Z" style="fill: rgb(2, 48, 58);"/>
</svg>